<?xml version="1.0" encoding="utf-8"?>
<!-- Generator: Adobe Illustrator 27.5.0, SVG Export Plug-In . SVG Version: 6.00 Build 0)  -->
<svg version="1.1" xmlns="http://www.w3.org/2000/svg" xmlns:xlink="http://www.w3.org/1999/xlink" x="0px" y="0px"
	 viewBox="0 0 800 800" style="enable-background:new 0 0 800 800;" xml:space="preserve">
<g id="Background">
	<rect style="fill:#65B2E8;" width="800" height="800"/>
</g>
<g id="Object">
	<g>
		<circle style="fill:#323E48;" cx="407" cy="419.75" r="187.581"/>
		<path style="fill:#5887DA;" d="M443.849,302.623c-0.193,1.157,0.771,4.823,1.35,7.138c0.579,2.315,0,7.331-1.35,8.103
			c-1.351,0.772,1.929,2.508,4.437,0.965c2.508-1.543,3.087,0.386,5.017-1.736c1.929-2.122,4.051-4.63,4.051-6.174
			c0-1.543-1.157-1.736-2.508-4.051c-1.351-2.315-4.823-6.559-4.823-8.103c0-1.543-0.735-8.296-1.911-7.717
			c-1.176,0.579-4.262,0-4.262,0c-1.93,1.736-1.93,1.368-1.93,3.288c0,1.92-1.736,2.692-1.543,4.043
			C440.568,299.729,444.041,301.465,443.849,302.623z M315.94,268.816c-2.315,2.508-9.839,10.032-9.839,14.662
			c0,4.63,3,5.209,5.165,3.473c2.165-1.736,2.358-5.209,3.902-6.56c1.544-1.35,7.138-7.717,10.804-7.138
			c3.665,0.579,14.276,10.032,19.099,9.454c4.823-0.579,7.717-3.473,7.717-4.63c0-1.157-6.752-2.894-7.138-5.402
			c-0.386-2.508-2.508-7.524-4.823-7.717c-2.315-0.193-10.611,0-11.382-1.736c-0.772-1.736-9.26-6.56-9.646-8.102
			c-0.098-0.391-0.096-0.882-0.093-1.427c-3.557,1.874-7.05,3.852-10.466,5.942c0.522,0.364,1.082,0.675,1.686,0.915
			C311.921,260.943,318.256,266.308,315.94,268.816z M421.759,278.559c-1.36,1.146-4.63,1.544-4.92,1.544
			c-0.289,0-1.543,2.412-0.965,4.051c0.579,1.64,3.666,4.341,6.463,3.762c2.798-0.579,6.463-0.691,7.814-4.638
			c1.351-3.947-0.386-1.728-1.446-3.754C427.643,277.498,423.592,277.015,421.759,278.559z M438.157,315.696
			c0.965-0.29,2.508-1.254,2.7-1.736c0.193-0.482,0.482-1.158,1.061-2.026c0.579-0.868,0.097-3.087,0-3.473
			c-0.097-0.386-3.162-1.289-3.762-1.157c-0.565,0.124-2.508,0.772-2.508,2.218c0,1.447-0.772,0.386,0,3.087
			C436.421,315.31,437.192,315.985,438.157,315.696z M357.612,474.344c-7.46-4.889-16.72-11.062-17.749-13.634
			c-1.029-2.572-4.373-7.459-8.488-7.974c-4.116-0.515-9.003-2.573-9.518-10.29c-0.514-7.717-5.144-5.145-7.459-5.145
			c-2.315,0-9.003,2.83-13.633-1.543c-4.63-4.373-8.747-7.717-12.862-2.315c-4.115,5.402-8.746,9.003-13.119,7.202
			c-4.373-1.8-9.517-2.829-8.746-8.231c0.772-5.401-0.515-10.547-4.116-10.032c-3.601,0.516-6.945-0.771-4.63-5.658
			c2.315-4.888,7.202-7.716,4.373-9.518c-2.83-1.801-9.518-3.087-10.546,0.514c-1.029,3.602-6.174,8.232-9.518,6.174
			c-3.344-2.058-4.888-5.144-4.63-7.459c0.257-2.315-2.314-13.376,6.689-17.749c9.003-4.373,12.604,0.257,14.405-1.286
			c1.8-1.543,1.543-5.659,5.402-4.63c3.858,1.029,11.061,11.062,14.919,9.775c3.858-1.286-2.572-15.948,1.543-16.977
			c4.115-1.029,12.347-7.203,13.89-10.289c1.544-3.087,2.315-10.032,4.373-10.804c2.059-0.772,9.518-1.801,10.804-3.344
			c1.287-1.544,3.087-8.232,5.659-8.232c2.573,0,12.604,1.287,15.177-3.601c2.572-4.887,4.888-7.974,0.515-9.518
			c-4.373-1.543-13.891-2.314-4.63-4.373c9.26-2.058,16.206,0,19.807-4.116c3.601-4.116-1.029-9.774-2.83-10.032
			c-1.8-0.257-3.858-2.058-3.344-4.373c0.514-2.315,0.771-9.775-1.543-10.547c-2.315-0.771-8.489,2.315-8.489,0
			c0-2.315-8.489-9.774-11.318-9.003c-2.829,0.771-5.916,7.717-8.231,10.804c-2.315,3.087,0.257,7.974,0.257,7.974
			s-5.145,2.83-6.945,2.83c-1.801,0-5.659,10.546-6.173,8.488c-0.515-2.058-0.772-6.688-3.602-8.231
			c-2.83-1.543-9.517-3.344-10.546-7.203c-1.029-3.858,2.058-7.974,8.232-9.774c6.174-1.801,13.891-11.318,14.405-14.662
			c0.515-3.344-1.543-3.344,1.543-5.402c3.087-2.058,2.058-5.917-4.63-6.174c-0.93-0.036-1.926,0.025-2.96,0.141
			c-46.677,32.77-77.733,86.268-79.805,147.127c3.947,5.66,10.01,11.893,18.2,15.043c13.376,5.145,14.405,3.087,18.52,9.261
			c4.116,6.173,8.231,6.432,10.289,8.489c2.058,2.058,12.348,0.77,11.833,4.372c-0.515,3.602-4.631,18.264-7.975,19.808
			c-3.344,1.543,0.772,5.402-1.286,7.975c-2.058,2.571-2.572,11.317,1.801,16.462c4.372,5.146,4.116,18.263,16.977,23.923
			c12.861,5.659,11.061,14.92,11.061,21.093c0,6.174,3.087,17.748,2.058,21.864c-0.59,2.362-1.856,6.84-2.781,11.055
			c8.37,5.966,17.254,11.256,26.567,15.804c0.249-0.457,0.393-1,0.393-1.649c0-4.887,3.087-5.4,4.888-7.202
			c1.801-1.801,0.257-5.146,9.774-7.975s7.203-13.891,8.746-18.52c1.543-4.63-3.344-9.26,2.315-12.089
			c5.659-2.83,10.546-1.03,12.861-4.889c2.315-3.858,5.917-10.288,4.63-13.632c-1.286-3.345-2.804-15.177,0.27-16.977
			c3.074-1.801,8.219-9.519,7.447-19.293C375.361,476.4,365.071,479.231,357.612,474.344z M413.752,271.039
			c5.98-6.467,11.383-19.779,11.768-22.094c0.386-2.315-14.469-8.874-14.662-12.54c-0.073-1.386-0.701-2.829-1.867-4.21
			c-0.664-0.007-1.326-0.025-1.991-0.025c-23.19,0-45.391,4.219-65.893,11.914c0.116,0.681,0.221,1.345,0.299,1.969
			c0.174,1.393,7.524,9.646,14.083,10.418c6.559,0.772,11.768,3.858,12.154,7.524c0.386,3.665,4.052,8.489-1.157,9.454
			c-5.209,0.964-4.244,8.103-2.894,9.453c1.351,1.351,3.665,13.504,6.945,13.119c3.28-0.386,10.611-6.173,12.154-9.453
			c1.543-3.28,3.858-5.595,7.524-5.595S407.771,277.506,413.752,271.039z M334.654,282.064c-2.701-0.579-3.006-2.315-6.712,0
			c-3.706,2.315-3.128,2.701-1.584,3.858c1.543,1.158,3.28,6.752,8.296,4.823c5.016-1.929,4.6-4.878,3.858-7.331
			C337.771,280.961,334.654,282.064,334.654,282.064z M527.785,276.243c-3.684,6.112-8.157,14.073-10.819,11.608
			c-3.473-3.215-6.945-6.486-3.858-7.937c2.931-1.378,8.982-2.5,9.918-7.563c-1.602-1.263-3.229-2.492-4.871-3.703
			c-4.52,0.021-10.814,1.488-13.149,0.554c-3.858-1.543-16.592-2.657-20.064-0.557c-3.473,2.1-13.118,6.377-12.732,9.254
			c0.386,2.878-2.701,7.19-8.489,8.121c-5.787,0.931-3.086,9.42-2.314,12.12c0.771,2.701,6.945,6.173,8.102,2.315
			c1.157-3.858,6.56,2.664,10.418,1.718s5.016-11.107,4.63-14.322c-0.386-3.215,3.858-6.455,4.63-6.957
			c0.772-0.502,7.957-6.443,6.294,0c-1.663,6.443-3.16,12.617,0,12.423c3.16-0.193,10.298-1.911,4.897,2.71
			c-5.402,4.621-7.139,8.094-7.331,9.444c-0.193,1.351-9.84,7.331-12.54,6.173c-2.701-1.157-7.717-0.386-7.91-2.122
			c-0.193-1.736-0.771-6.366-2.122-5.016c-1.351,1.35-4.823,3.666-3.858,4.823c0.965,1.158,1.543,3.665-0.579,3.28
			c-2.122-0.386-5.889-0.885-5.935,0.04c-0.046,0.925-1.203,9.027-6.798,11.149c-5.595,2.122-10.226,0.965-10.032,2.508
			c0.192,1.543,3.087,3.859,3.858,5.595c0.771,1.736,2.508,6.56-0.772,6.56c-3.28,0-9.453,0.771-12.348,3.666
			c-2.894,2.894-3.473,3.858-3.279,6.367c0.193,2.508,0.386,10.804,3.087,10.417c2.701-0.386,6.366,2.315,6.945,3.666
			c0.578,1.351,3.858-0.193,6.945-1.736c3.086-1.543,4.822-4.244,5.595-6.366c0.771-2.122,2.122-7.331,5.595-7.524
			c3.473-0.193,1.157-3.473,6.173-4.051c5.017-0.579,5.982-3.473,8.875-0.579c2.894,2.894,6.945,6.945,9.26,6.945
			c2.315,0-1.77,3.473-2.428,5.595c-0.659,2.122,1.27,3.858,3.007,2.122c1.736-1.736,1.254-3.183,2.605-3.858
			c1.351-0.675,1.64,0.097,1.929,0.483c0.29,0.386,1.736-2.412,1.255-3.087c-0.482-0.675-4.534-5.595-4.727-6.945
			c-0.193-1.35-2.701-3.183-1.351-3.569c1.351-0.386,4.822,0.579,6.173,2.219c1.351,1.64,2.99,2.604,2.798,5.208
			c-0.193,2.604,0.289,5.113,1.447,6.656c1.157,1.543,4.437,8.778,6.752,8.006c2.314-0.772,0.675-4.341,0.579-6.56
			c-0.097-2.219-0.193-5.788,2.025-5.98c2.219-0.193,4.147,0.386,4.63,2.701c0.483,2.315,2.99,6.849,4.63,8.392
			c1.641,1.543,6.849,1.254,8.296,1.351c1.447,0.097,9.742,0.097,10.032,3.762c0.289,3.665-4.147,8.874-8.971,9.067
			c-4.823,0.193-13.505-0.675-16.592-2.701c-3.087-2.026-8.488-3.569-11.382-0.482c-2.895,3.087-4.438,7.577-6.85,3.21
			c-2.411-4.367-12.443-9.866-13.311-10.927c-0.868-1.061-8.874-1.351-12.443-1.447c-3.569-0.097-16.237-1.062-23.311,8.713
			c-7.073,9.775-15.048,14.02-16.72,16.334c-1.672,2.315-6.689,15.304-7.46,17.492c-0.771,2.187,1.414,6.174,2.315,7.203
			c0.9,1.028-2.572,5.916-4.116,7.331c-1.543,1.414-0.9,3.858,0.644,8.745c1.543,4.887,3.73,10.675,5.916,12.347
			c2.188,1.673,7.073,6.816,9.261,10.289c2.187,3.473,5.787,9.133,8.488,9.133s6.561-8.489,8.36-7.846
			c1.801,0.643,2.829,2.957,3.729,2.957s3.986,0.772,4.888-1.285c0.9-2.059,4.244-2.573,6.945-0.258
			c2.7,2.315,12.54-1.351,12.732,0.579c0.193,1.929,5.016,5.016,3.666,7.523c-1.351,2.508-6.174,6.174-4.823,8.682
			c1.351,2.508,6.945,9.647,6.945,12.154c0,2.508,2.508,12.926,1.929,17.556c-0.579,4.631,4.823,2.508-0.192,14.084
			c-5.017,11.575,0,18.713,1.157,20.449c1.157,1.736,6.366,14.47,6.366,20.064c0,5.595-1.736,19.484,4.63,18.327
			c6.367-1.157,2.895-0.579,9.067-3.858c6.174-3.279,11.383-1.351,13.119-3.473c1.736-2.122,10.996-8.296,10.996-10.032
			c0-1.735,0.193-6.559,0.965-8.874c0.771-2.315,9.453-5.595,9.646-8.296c0.192-2.7-8.488-7.717-6.945-10.225
			c1.543-2.508,13.312-8.874,16.784-9.839c3.473-0.965,2.508-7.91,1.736-9.839c-0.771-1.93-5.788-22.38-2.701-24.888
			c3.087-2.508,5.595-10.61,8.102-13.504c2.509-2.895,10.418-10.418,11.19-13.119c0.771-2.701,4.244-14.083,4.437-18.328
			c0.193-4.244-0.386-5.787-3.858-5.401c-3.473,0.386-14.083,10.418-16.591,0.965c-2.508-9.453-5.98-9.647-6.174-12.733
			c-0.193-3.087-3.473-15.434-7.331-16.977c-3.858-1.544-5.595-7.331-5.595-9.646c0-2.315-2.894-7.91-1.351-8.103
			c1.544-0.193,8.103,5.788,8.682,7.331c0.579,1.543,2.508,0.579,3.858,6.56c1.351,5.98,3.087,4.63,5.98,10.61
			c2.895,5.98,6.366,11.189,5.595,13.119c-0.771,1.929,1.93,10.417,3.28,9.645c1.35-0.771,6.366-6.945,8.488-7.138
			c2.122-0.193,13.891-9.261,16.013-11.575c2.122-2.315,3.279-8.103,3.279-10.418c0-2.315-3.279-9.067-5.016-9.261
			c-1.736-0.193-4.052,5.209-5.98,5.017c-1.93-0.193-4.823-5.981-6.56-6.367c-1.736-0.386-4.052-4.438-4.052-5.981
			c0-1.543-1.351-6.945,0.386-6.945c1.736,0,4.438,7.331,5.98,7.91c1.544,0.579,7.91-2.315,9.84-0.579
			c1.929,1.736,8.488,9.839,10.61,9.839c1.239,0,2.806-1.846,4.318-4.337C586.459,347.115,562.506,305.497,527.785,276.243z
			 M258.667,395.417c-1.231-0.513-3,1.167-3.333,1.999c-0.333,0.834,4,1,5.167,1.334s4.5,2,5.833,3.334
			c1.333,1.332,4.333,3.5,5.833,3.5s3.666-0.667,1.833-2.5c-1.833-1.834-5.5-3.668-6.5-4.334S260.667,396.25,258.667,395.417z"/>
	</g>
	
		<circle style="fill:none;stroke:#FFFFFF;stroke-width:3;stroke-miterlimit:10;stroke-dasharray:14;" cx="400" cy="419.75" r="225.998"/>
	<path style="fill:none;stroke:#FFFFFF;stroke-width:3;stroke-miterlimit:10;stroke-dasharray:14;" d="M590.54,468.965
		c14.46-33.215-42.282-95.215-98.411-84.215"/>
	<path style="fill:none;stroke:#FFFFFF;stroke-width:3;stroke-miterlimit:10;stroke-dasharray:14;" d="M204.71,339.571
		C195,419.75,252,570.869,492.129,528.448"/>
	<path style="fill:none;stroke:#FFFFFF;stroke-width:3;stroke-miterlimit:10;stroke-dasharray:14;" d="M584.748,357.576
		c-42.271-67.535-279.864-101.327-337.733,21.174"/>
	<g>
		<path style="fill:#FFB71B;" d="M492.129,348.543c-7.986,0-14.46,6.474-14.46,14.46c0,1.62,0.271,3.176,0.762,4.63
			c2.257,8.609,9.065,22.415,13.698,22.415c4.633,0,11.441-13.806,13.698-22.415c0.491-1.454,0.762-3.01,0.762-4.63
			C506.589,355.017,500.115,348.543,492.129,348.543z"/>
		
			<ellipse transform="matrix(0.229 -0.9734 0.9734 0.229 26.059 758.908)" style="fill:#323E48;" cx="492.129" cy="363.003" rx="7.269" ry="7.269"/>
	</g>
	<g>
		<path style="fill:#FFB71B;" d="M246.015,345.455c-6.265,0-11.343,5.079-11.343,11.343c0,1.271,0.212,2.491,0.598,3.632
			c1.771,6.753,7.111,17.584,10.746,17.584c3.634,0,8.975-10.831,10.746-17.584c0.385-1.141,0.598-2.361,0.598-3.632
			C257.358,350.533,252.279,345.455,246.015,345.455z"/>
		<path style="fill:#323E48;" d="M251.716,356.798c0,3.149-2.552,5.702-5.702,5.702c-3.149,0-5.702-2.553-5.702-5.702
			c0-3.149,2.552-5.702,5.702-5.702C249.164,351.096,251.716,353.649,251.716,356.798z"/>
	</g>
	<g>
		<path style="fill:#FFB71B;" d="M492.129,497.738c-5.985,0-10.837,4.852-10.837,10.838c0,1.214,0.202,2.379,0.57,3.47
			c1.692,6.452,6.795,16.799,10.267,16.799c3.472,0,8.574-10.347,10.266-16.799c0.369-1.091,0.571-2.256,0.571-3.47
			C502.966,502.591,498.114,497.738,492.129,497.738z"/>
		<path style="fill:#323E48;" d="M497.576,508.576c0,3.008-2.439,5.447-5.447,5.447c-3.009,0-5.447-2.439-5.447-5.447
			c0-3.009,2.439-5.448,5.447-5.448C495.138,503.128,497.576,505.567,497.576,508.576z"/>
	</g>
	<g>
		<path style="fill:#FFB71B;" d="M310.599,525.601c-7.986,0-14.46,6.474-14.46,14.46c0,1.62,0.271,3.176,0.762,4.63
			c2.257,8.609,9.065,22.415,13.698,22.415s11.441-13.806,13.698-22.415c0.491-1.454,0.762-3.01,0.762-4.63
			C325.059,532.074,318.585,525.601,310.599,525.601z"/>
		
			<ellipse transform="matrix(0.229 -0.9734 0.9734 0.229 -286.2444 718.7083)" style="fill:#323E48;" cx="310.599" cy="540.061" rx="7.269" ry="7.269"/>
	</g>
	<g>
		<path style="fill:#FFB71B;" d="M475.338,265.7c-5.594,0-10.129,4.535-10.129,10.128c0,1.135,0.19,2.225,0.533,3.243
			c1.582,6.03,6.351,15.7,9.596,15.7s8.015-9.67,9.595-15.7c0.345-1.019,0.533-2.108,0.533-3.243
			C485.466,270.234,480.932,265.7,475.338,265.7z"/>
		<path style="fill:#323E48;" d="M480.429,275.828c0,2.811-2.279,5.091-5.091,5.091c-2.813,0-5.092-2.28-5.092-5.091
			c0-2.811,2.279-5.091,5.092-5.091C478.149,270.737,480.429,273.017,480.429,275.828z"/>
	</g>
	<g>
		<g>
			<path style="fill:#FFFFFF;" d="M261.335,473.748c-2.965-3.399-8.123-3.75-11.523-0.785c-3.398,2.965-3.749,8.123-0.784,11.523
				l10.736,12.307c2.966,3.399,8.125,3.751,11.523,0.786c3.398-2.966,3.75-8.125,0.784-11.523L261.335,473.748z"/>
			<path style="fill:#FFFFFF;" d="M293.336,461.753c-2.965-3.399-8.123-3.751-11.522-0.785c-3.398,2.965-3.75,8.124-0.784,11.522
				l10.736,12.307c2.966,3.398,8.125,3.75,11.523,0.785c3.398-2.965,3.75-8.123,0.784-11.522L293.336,461.753z"/>
			<path style="fill:#DADADA;" d="M225.728,495.303c0,0,77.821-31.61,87.484-34.732c9.663-3.121,21.69-0.357,26.73,5.42
				l-95.298,67.219L225.728,495.303z"/>
			<path style="fill:#FFB71B;" d="M333.682,461.65l-92.621,64.377l3.584,7.182l95.298-67.219
				C338.415,464.238,336.235,462.768,333.682,461.65z"/>
		</g>
		<g>
			<path style="fill:#FFFFFF;" d="M165.134,557.68c-2.966-3.399-2.614-8.559,0.784-11.523c3.398-2.965,8.558-2.613,11.523,0.785
				l10.736,12.307c2.965,3.398,2.614,8.559-0.784,11.523c-3.399,2.965-8.558,2.613-11.522-0.785L165.134,557.68z"/>
			<path style="fill:#FFFFFF;" d="M148.911,587.759c-2.966-3.399-2.614-8.558,0.785-11.523c3.398-2.965,8.557-2.612,11.521,0.786
				l10.737,12.307c2.966,3.398,2.614,8.557-0.784,11.521c-3.398,2.966-8.558,2.615-11.523-0.784L148.911,587.759z"/>
			<path style="fill:#DADADA;" d="M191.317,525.324c0,0-41.87,72.816-46.273,81.967c-4.402,9.149-3.295,21.441,1.746,27.219
				l79.52-85.303L191.317,525.324z"/>
			<path style="fill:#FFB71B;" d="M143.338,627.717l76.342-83.035l6.629,4.525l-79.52,85.303
				C145.26,632.757,144.098,630.398,143.338,627.717z"/>
		</g>
		<path style="fill:#FFFFFF;" d="M307.026,623.216c-5.65,4.931-18.596,33.697-14.342,40.603c0,0,14.641-17.858,25.737-27.541
			c11.098-9.682,30.776-21.764,30.776-21.764C342.933,609.362,312.676,618.285,307.026,623.216z"/>
		<path style="fill:#FFFFFF;" d="M155.272,449.277c-7.863,6.859-7.862,37.383,11.203,59.234
			c63.77,73.092,142.975,140.68,154.466,130.654c11.491-10.025-44.731-97.664-108.501-170.756
			C193.373,446.558,163.133,442.418,155.272,449.277z"/>
		<path style="fill:#FFB71B;" d="M263.024,604.762c29.348,24.93,52.152,39.434,57.917,34.404c5.765-5.029-5.513-29.59-26.233-62.047
			L263.024,604.762z"/>
		<path style="fill:#FFFFFF;" d="M308.971,619.307c-1.465-1.68-4.014-1.853-5.694-0.387c-1.679,1.465-1.853,4.014-0.388,5.693
			l9.338,10.701c1.465,1.681,4.014,1.854,5.693,0.389c1.68-1.465,1.854-4.014,0.389-5.694L308.971,619.307z"/>
		<path style="fill:#323E48;" d="M187.117,459.158c0,0-0.198-0.015-0.571-0.043c-0.363-0.027-0.924-0.114-1.583-0.145
			c-0.659-0.043-1.431-0.066-2.339-0.072c-0.446-0.016-0.922-0.018-1.422,0.004c-0.498,0.008-1.012,0.001-1.557,0.047
			c-0.541,0.028-1.095,0.033-1.674,0.098c-0.576,0.043-1.165,0.072-1.771,0.152c-1.208,0.102-2.467,0.299-3.743,0.49
			c-1.263,0.234-2.568,0.479-3.77,0.828c-0.59,0.172-1.181,0.38-1.663,0.581c-0.525,0.19-0.852,0.446-0.982,0.522
			c0.434-0.414,0.113-0.107,0.207-0.197l-0.013,0.014l-0.024,0.025l-0.049,0.051l-0.098,0.102l-0.196,0.203l-0.195,0.202
			l-0.029,0.081c-0.039,0.104-0.099,0.115-0.254,0.423c-0.265,0.45-0.55,1.007-0.8,1.569c-0.51,1.142-0.93,2.402-1.332,3.621
			c-0.363,1.238-0.73,2.459-0.993,3.643c-0.163,0.59-0.271,1.17-0.392,1.734c-0.142,0.565-0.223,1.113-0.324,1.645
			c-0.119,0.534-0.182,1.045-0.258,1.536c-0.088,0.493-0.15,0.964-0.197,1.407c-0.119,0.895-0.195,1.685-0.24,2.35
			c-0.055,0.666-0.057,1.191-0.076,1.564c-0.022,0.375-0.035,0.575-0.035,0.575s-0.121-0.156-0.33-0.465
			c-0.186-0.314-0.565-0.758-0.85-1.389c-0.316-0.623-0.713-1.4-1.02-2.33c-0.186-0.465-0.318-0.966-0.463-1.5
			c-0.152-0.533-0.281-1.102-0.386-1.697c-0.226-1.192-0.381-2.502-0.418-3.895c-0.059-1.395,0.022-2.867,0.204-4.395
			c0.104-0.766,0.223-1.539,0.41-2.327c0.094-0.394,0.188-0.792,0.281-1.191c0.128-0.399,0.256-0.801,0.385-1.204
			c0.299-0.811,0.587-1.637,1.071-2.486c0.171-0.367,0.563-0.959,0.948-1.475l0.291-0.383l0.191-0.209l0.19-0.208l0.095-0.103
			l0.048-0.052l0.023-0.027l0.013-0.012l0.23-0.223c1.061-0.84,2.059-1.324,2.941-1.646c0.906-0.365,1.765-0.537,2.609-0.724
			c0.417-0.073,0.832-0.146,1.245-0.218c0.407-0.039,0.815-0.078,1.218-0.117c0.807-0.079,1.59-0.092,2.361-0.092
			c1.539,0.027,3.008,0.146,4.383,0.395c1.373,0.225,2.65,0.557,3.801,0.941c0.576,0.186,1.121,0.391,1.63,0.613
			c0.509,0.215,0.988,0.414,1.422,0.66c0.874,0.43,1.611,0.934,2.191,1.334c0.595,0.373,0.944,0.793,1.238,1.021
			C186.971,459.022,187.117,459.158,187.117,459.158z"/>
	</g>
	<g>
		<g>
			<path style="fill:#FFFFFF;" d="M454.145,273.51c4.035,2.013,8.94,0.374,10.953-3.662c2.014-4.036,0.374-8.939-3.661-10.953
				l-14.615-7.292c-4.036-2.014-8.94-0.374-10.953,3.661c-2.014,4.036-0.375,8.94,3.661,10.954L454.145,273.51z"/>
			<path style="fill:#FFFFFF;" d="M429.121,296.786c4.035,2.014,8.939,0.375,10.953-3.661s0.374-8.94-3.661-10.953l-14.615-7.292
				c-4.036-2.014-8.939-0.375-10.953,3.661c-2.014,4.036-0.374,8.94,3.661,10.954L429.121,296.786z"/>
			<path style="fill:#DADADA;" d="M478.863,240.021c0,0-59.925,58.86-67.671,65.426c-7.745,6.565-19.921,8.589-26.781,5.166
				l62.526-98.44L478.863,240.021z"/>
			<path style="fill:#F4436C;" d="M411.192,305.447c0.943-0.8,2.664-2.378,4.952-4.528l7.057-51.376l-38.79,61.07
				C391.271,314.036,403.447,312.013,411.192,305.447z"/>
		</g>
		<g>
			<path style="fill:#FFFFFF;" d="M511.144,159.273c4.035,2.014,5.675,6.917,3.661,10.954c-2.014,4.036-6.918,5.674-10.953,3.661
				l-14.615-7.292c-4.036-2.014-5.675-6.917-3.662-10.953c2.015-4.036,6.918-5.675,10.954-3.662L511.144,159.273z"/>
			<path style="fill:#FFFFFF;" d="M514.692,125.281c4.035,2.014,5.675,6.917,3.661,10.953c-2.014,4.036-6.918,5.675-10.953,3.661
				l-14.615-7.291c-4.036-2.014-5.675-6.918-3.662-10.953c2.015-4.036,6.918-5.675,10.954-3.662L514.692,125.281z"/>
			<path style="fill:#DADADA;" d="M499.251,199.16c0,0,10.992-83.275,11.579-93.412c0.588-10.137-5.117-21.081-11.977-24.504
				l-41.052,109.155L499.251,199.16z"/>
			<path style="fill:#F4436C;" d="M510.83,105.748c-0.071,1.234-0.297,3.559-0.64,6.679l-36.805,36.534l25.468-67.717
				C505.713,84.667,511.418,95.611,510.83,105.748z"/>
		</g>
		<path style="fill:#DADADA;" d="M354.985,152.696c3.348-6.71,4.364-38.238-2.198-43.004c0,0-6.737,22.087-13.313,35.266
			c-6.575,13.179-20.171,31.844-20.171,31.844C327.058,179.179,351.637,159.407,354.985,152.696z"/>
		<path style="fill:#FFFFFF;" d="M561.536,255.753c4.658-9.337-6.964-37.56-32.913-50.507
			c-86.796-43.306-185.77-75.645-192.578-61.999c-6.809,13.645,78.549,73.275,165.345,116.582
			C527.339,272.776,556.878,265.09,561.536,255.753z"/>
		<path style="fill:#F4436C;" d="M354.675,157.053c1.994,0.995,4.417,0.185,5.413-1.81c0.995-1.994,0.185-4.417-1.811-5.412
			l-12.708-6.341c-1.995-0.996-4.417-0.185-5.412,1.809c-0.995,1.995-0.186,4.419,1.809,5.414L354.675,157.053z"/>
		<path style="fill:#323E48;" d="M528.328,258.742c0,0,0.19-0.063,0.545-0.179c0.346-0.112,0.896-0.245,1.519-0.468
			c0.626-0.211,1.349-0.483,2.19-0.824c0.418-0.157,0.858-0.336,1.314-0.545c0.456-0.197,0.935-0.386,1.421-0.636
			c0.489-0.232,1-0.448,1.511-0.728c0.516-0.258,1.05-0.51,1.579-0.815c1.079-0.553,2.168-1.216,3.275-1.878
			c1.078-0.698,2.192-1.421,3.17-2.201c0.48-0.384,0.947-0.801,1.316-1.17c0.413-0.376,0.617-0.737,0.71-0.858
			c-0.243,0.547-0.063,0.143-0.116,0.261l0.006-0.016l0.014-0.033l0.025-0.065l0.053-0.131l0.104-0.262l0.104-0.262l-0.004-0.085
			c-0.003-0.112,0.048-0.145,0.074-0.489c0.073-0.517,0.125-1.141,0.143-1.755c0.035-1.25-0.057-2.575-0.148-3.856
			c-0.137-1.282-0.262-2.551-0.47-3.746c-0.074-0.607-0.193-1.184-0.297-1.752c-0.084-0.577-0.219-1.115-0.328-1.645
			c-0.092-0.539-0.229-1.035-0.346-1.518c-0.106-0.49-0.228-0.949-0.354-1.377c-0.231-0.871-0.46-1.632-0.672-2.263
			c-0.203-0.638-0.402-1.125-0.525-1.476c-0.121-0.355-0.186-0.545-0.186-0.545s0.172,0.097,0.482,0.304
			c0.29,0.22,0.812,0.485,1.316,0.961c0.529,0.456,1.19,1.022,1.83,1.767c0.348,0.358,0.661,0.771,0.998,1.21
			c0.344,0.436,0.679,0.912,1.003,1.422c0.663,1.018,1.306,2.17,1.869,3.442c0.585,1.267,1.071,2.66,1.485,4.142
			c0.193,0.748,0.379,1.509,0.506,2.309c0.063,0.4,0.128,0.803,0.193,1.208c0.034,0.419,0.068,0.838,0.103,1.26
			c0.033,0.864,0.081,1.738-0.043,2.706c-0.019,0.406-0.155,1.103-0.315,1.726l-0.124,0.465l-0.097,0.265l-0.097,0.265l-0.049,0.133
			l-0.023,0.066l-0.013,0.033l-0.006,0.017l-0.129,0.294c-0.662,1.18-1.4,2.008-2.094,2.643c-0.699,0.682-1.427,1.169-2.137,1.662
			c-0.357,0.227-0.714,0.451-1.068,0.676c-0.363,0.191-0.724,0.382-1.082,0.572c-0.715,0.379-1.435,0.689-2.148,0.984
			c-1.433,0.561-2.838,1.009-4.202,1.304c-1.356,0.314-2.663,0.495-3.874,0.577c-0.603,0.048-1.185,0.066-1.74,0.054
			c-0.553-0.005-1.071-0.008-1.566-0.07c-0.972-0.063-1.845-0.249-2.533-0.399c-0.692-0.118-1.177-0.374-1.535-0.472
			C528.514,258.814,528.328,258.742,528.328,258.742z"/>
		<path style="fill:#F4436C;" d="M369.686,174.748c0.096-0.192,0.225-0.373,0.387-0.532c0.787-0.775,2.054-0.765,2.828,0.022
			c4.177,4.242,26.003,18.907,32.055,22.776c0.931,0.596,1.208,1.834,0.608,2.762c-0.596,0.931-1.832,1.203-2.763,0.609
			c-4.654-2.976-28.029-18.546-32.751-23.342C369.435,176.419,369.315,175.492,369.686,174.748z"/>
		<path style="fill:#F4436C;" d="M381.444,151.182c0.371-0.744,1.184-1.205,2.054-1.089c6.671,0.888,33.168,10.201,38.344,12.13
			c1.035,0.387,1.561,1.538,1.176,2.573c-0.376,1.031-1.537,1.561-2.572,1.175c-6.731-2.508-31.573-11.128-37.475-11.914
			c-1.096-0.146-1.865-1.151-1.719-2.246C381.281,151.586,381.348,151.374,381.444,151.182z"/>
	</g>
	<g>
		<g>
			<path style="fill:#DADADA;" d="M597.971,532.989c1.306-2.33,0.477-5.277-1.854-6.583c-2.329-1.307-5.276-0.478-6.583,1.852
				l-4.73,8.436c-1.307,2.329-0.477,5.276,1.853,6.582c2.329,1.308,5.276,0.477,6.583-1.852L597.971,532.989z"/>
			<path style="fill:#DADADA;" d="M611.021,548.456c1.306-2.33,0.477-5.277-1.853-6.583c-2.329-1.308-5.275-0.477-6.583,1.852
				l-4.731,8.436c-1.307,2.329-0.477,5.277,1.852,6.583c2.33,1.307,5.277,0.477,6.584-1.852L611.021,548.456z"/>
			<path style="fill:#FFFFFF;" d="M578.87,517.411c0,0,33.099,37.127,36.761,41.896c3.661,4.77,4.51,12.028,2.288,15.988
				l-56.433-39.798L578.87,517.411z"/>
			<path style="fill:#6ABF4B;" d="M619.1,568.839c-11.253-7.452-27.907-18.12-32.87-24.802c-4.889-6.581-3.644-13.995-1.835-20.418
				c-3.324-3.739-5.524-6.208-5.524-6.208l-17.385,18.086l56.433,39.798C618.872,573.598,619.255,571.293,619.1,568.839z"/>
		</g>
		<g>
			<path style="fill:#DADADA;" d="M532.034,496.01c1.307-2.329,4.254-3.159,6.584-1.853c2.329,1.307,3.158,4.254,1.852,6.583
				l-4.731,8.436c-1.306,2.329-4.253,3.158-6.582,1.852c-2.33-1.307-3.159-4.254-1.853-6.583L532.034,496.01z"/>
			<path style="fill:#DADADA;" d="M512.032,492.938c1.307-2.329,4.254-3.158,6.583-1.852c2.329,1.306,3.158,4.253,1.852,6.583
				l-4.731,8.436c-1.306,2.329-4.253,3.158-6.582,1.852c-2.33-1.306-3.159-4.253-1.853-6.583L512.032,492.938z"/>
			<path style="fill:#FFFFFF;" d="M555.286,504.184c0,0-48.938-8.884-54.917-9.521c-5.979-0.639-12.615,2.423-14.836,6.383
				l63.386,27.402L555.286,504.184z"/>
			<path style="fill:#6ABF4B;" d="M490.427,496.673c12.225,5.716,30.014,14.365,38.303,15.115
				c8.164,0.739,13.842-4.189,18.379-9.081c4.924,0.887,8.178,1.477,8.178,1.477l-6.367,24.265l-63.386-27.402
				C486.485,499.349,488.252,497.819,490.427,496.673z"/>
		</g>
		<path style="fill:#DADADA;" d="M523.678,588.182c-3.873-2.172-22.491-3.676-25.498,0.069c0,0,12.871,4.617,20.477,8.883
			c7.607,4.266,18.257,12.841,18.257,12.841C538.542,605.456,527.551,590.354,523.678,588.182z"/>
		<path style="fill:#FFFFFF;" d="M590.54,468.965c-5.389-3.022-22.414,3.044-30.813,18.021
			c-28.097,50.097-50.056,107.709-42.18,112.127c7.876,4.416,45.586-44.361,73.683-94.459
			C599.629,489.678,595.929,471.986,590.54,468.965z"/>
		<path style="fill:#DADADA;" d="M526.245,588.489c0.645-1.151,0.236-2.608-0.915-3.254c-1.151-0.645-2.607-0.235-3.253,0.916
			l-4.114,7.335c-0.646,1.15-0.235,2.607,0.915,3.253c1.151,0.646,2.608,0.236,3.254-0.914L526.245,588.489z"/>
		<path style="fill:#323E48;" d="M591.357,488.691c0,0-0.031-0.114-0.09-0.328c-0.057-0.208-0.12-0.537-0.233-0.911
			c-0.107-0.377-0.247-0.811-0.424-1.319c-0.081-0.251-0.174-0.516-0.285-0.792c-0.104-0.275-0.202-0.564-0.336-0.858
			c-0.123-0.296-0.236-0.604-0.387-0.915c-0.139-0.313-0.272-0.635-0.438-0.957c-0.295-0.654-0.656-1.317-1.017-1.991
			c-0.382-0.657-0.777-1.337-1.211-1.938c-0.214-0.295-0.446-0.583-0.654-0.813c-0.211-0.254-0.418-0.386-0.486-0.444
			c0.316,0.16,0.082,0.042,0.15,0.077l-0.01-0.005l-0.018-0.009l-0.038-0.017l-0.076-0.035l-0.152-0.069l-0.152-0.068l-0.051-0.001
			c-0.065,0-0.084-0.031-0.286-0.057c-0.304-0.058-0.671-0.106-1.034-0.134c-0.738-0.058-1.525-0.041-2.285-0.024
			c-0.763,0.044-1.517,0.082-2.229,0.171c-0.361,0.026-0.706,0.081-1.045,0.126c-0.344,0.033-0.666,0.098-0.982,0.146
			c-0.321,0.039-0.619,0.105-0.908,0.161c-0.293,0.049-0.568,0.107-0.824,0.169c-0.523,0.112-0.979,0.227-1.357,0.333
			c-0.383,0.101-0.677,0.206-0.888,0.268c-0.214,0.063-0.328,0.096-0.328,0.096s0.063-0.1,0.193-0.277
			c0.139-0.165,0.311-0.466,0.605-0.75c0.285-0.301,0.64-0.676,1.098-1.032c0.223-0.195,0.477-0.369,0.744-0.556
			c0.268-0.191,0.559-0.376,0.87-0.553c0.621-0.363,1.321-0.71,2.09-1.007c0.766-0.31,1.604-0.558,2.491-0.76
			c0.448-0.094,0.903-0.182,1.38-0.233c0.239-0.025,0.479-0.053,0.721-0.079c0.248-0.009,0.498-0.018,0.748-0.026
			c0.512,0.006,1.03,0.003,1.6,0.103c0.239,0.023,0.648,0.124,1.012,0.236l0.271,0.087l0.154,0.065l0.153,0.065l0.077,0.032
			l0.038,0.016l0.02,0.009l0.01,0.004l0.17,0.085c0.679,0.424,1.147,0.885,1.503,1.314c0.383,0.433,0.65,0.877,0.923,1.311
			c0.122,0.219,0.245,0.436,0.368,0.652c0.102,0.22,0.205,0.439,0.308,0.655c0.204,0.434,0.366,0.868,0.521,1.3
			c0.29,0.863,0.516,1.706,0.651,2.522c0.146,0.81,0.216,1.589,0.229,2.309c0.012,0.357,0.006,0.702-0.018,1.03
			c-0.02,0.326-0.035,0.634-0.086,0.926c-0.066,0.572-0.2,1.083-0.309,1.485c-0.09,0.407-0.255,0.685-0.323,0.895
			C591.405,488.583,591.357,488.691,591.357,488.691z"/>
		<path style="fill:#6ABF4B;" d="M524.459,562.017c-0.908,2.446-1.752,4.809-2.53,7.079l18.945,10.626
			c1.533-1.848,3.109-3.8,4.723-5.85L524.459,562.017z"/>
	</g>
	<path style="fill:#33647E;" d="M186.229,288.938c0.533,0.59,2.04,2.095,4.036,4.054l-0.901,1.955
		c-0.642,1.394-0.034,3.046,1.361,3.688c1.394,0.644,3.045,0.035,3.689-1.36l0.076-0.165c1.321,1.282,2.699,2.615,4.061,3.93
		l-1.005,2.178c-0.642,1.395-0.033,3.046,1.361,3.689c1.395,0.643,3.045,0.034,3.688-1.36l0.194-0.422
		c1.808,1.74,3.403,3.271,4.55,4.371c-1.596,3.189-3.153,6.419-4.644,9.655c-4.134,8.964-1.21,18.934,2.016,20.421
		c3.225,1.487,12.706-2.762,16.839-11.727c1.492-3.235,2.939-6.517,4.326-9.8c1.582,0.158,3.784,0.376,6.28,0.622l-0.194,0.421
		c-0.643,1.394-0.034,3.045,1.361,3.688c1.394,0.643,3.045,0.034,3.689-1.361l1.004-2.178c1.884,0.182,3.794,0.365,5.626,0.537
		l-0.076,0.165c-0.643,1.394-0.035,3.046,1.36,3.689c1.394,0.643,3.045,0.034,3.688-1.36l0.901-1.955
		c2.786,0.247,4.91,0.416,5.704,0.437c3.455,0.094,7.119-1.962,8.212-4.332l-32.468-11.084c5.611-14.854,9.592-28.495,10.602-36.473
		c4.044,0.219,9.578-0.254,10.66-1.844c0,0-6.017-1.637-10.549-3.478c-0.176-0.985-0.517-1.625-1.043-1.868
		c-0.526-0.243-1.235-0.087-2.098,0.419c-4.344-2.252-9.494-5.765-9.494-5.765c-0.507,1.855,2.726,6.37,5.52,9.304
		c-5.412,5.948-13.202,17.832-20.855,31.745l-29.512-17.497C183.099,282.25,183.915,286.371,186.229,288.938z"/>
	<path style="fill:#33647E;" d="M638.107,365.194c-0.771,0.191-2.809,0.809-5.479,1.643l-1.297-1.718
		c-0.926-1.225-2.67-1.467-3.894-0.542c-1.227,0.924-1.469,2.667-0.544,3.894l0.11,0.145c-1.754,0.559-3.579,1.145-5.381,1.724
		l-1.446-1.915c-0.926-1.225-2.669-1.468-3.895-0.542c-1.226,0.925-1.468,2.668-0.542,3.893l0.279,0.371
		c-2.387,0.771-4.49,1.454-6.001,1.946c-2.058-2.914-4.17-5.811-6.317-8.652c-5.95-7.877-16.119-10.009-18.953-7.866
		c-2.834,2.14-3.565,12.503,2.385,20.38c2.147,2.844,4.357,5.668,6.596,8.441c-0.885,1.32-2.117,3.158-3.514,5.242l-0.279-0.37
		c-0.926-1.225-2.668-1.468-3.893-0.541c-1.226,0.924-1.469,2.668-0.542,3.892l1.445,1.914c-1.052,1.574-2.113,3.173-3.131,4.705
		l-0.109-0.145c-0.926-1.225-2.668-1.469-3.894-0.543c-1.225,0.926-1.468,2.668-0.542,3.895l1.297,1.717
		c-1.532,2.34-2.686,4.131-3.079,4.82c-1.714,3.002-1.632,7.203-0.059,9.285l25.103-23.387
		c10.443,11.961,20.588,21.912,27.142,26.57c-2.102,3.461-4.298,8.56-3.408,10.266c0,0,4.284-4.529,8.048-7.656
		c0.951,0.311,1.677,0.313,2.138-0.037c0.463-0.35,0.66-1.047,0.621-2.047c4.037-2.766,9.565-5.646,9.565-5.646
		c-1.396-1.324-6.903-0.605-10.808,0.471c-2.688-7.578-9.485-20.057-18.135-33.374l29.359-17.752
		C645.481,365.593,641.464,364.366,638.107,365.194z"/>
	<path style="fill:#0075C9;" d="M632.331,270.737c0-7.287-5.907-13.194-13.194-13.194c-7.286,0-13.193,5.907-13.193,13.194
		c0,7.287,5.907,13.194,13.193,13.194C626.424,283.931,632.331,278.023,632.331,270.737z"/>
	<path style="fill:#0075C9;" d="M142.993,382.06c0-7.287-5.907-13.194-13.194-13.194c-7.286,0-13.193,5.907-13.193,13.194
		c0,7.287,5.907,13.194,13.193,13.194C137.085,395.254,142.993,389.347,142.993,382.06z"/>
	<path style="fill:#0075C9;" d="M253.507,176.999c0-7.287-5.907-13.194-13.194-13.194c-7.286,0-13.193,5.907-13.193,13.194
		c0,7.287,5.907,13.194,13.193,13.194C247.6,190.193,253.507,184.286,253.507,176.999z"/>
	<path style="fill:#0075C9;" d="M351.447,676.633c0-7.286-5.907-13.194-13.194-13.194c-7.286,0-13.193,5.908-13.193,13.194
		c0,7.286,5.907,13.194,13.193,13.194C345.54,689.827,351.447,683.919,351.447,676.633z"/>
	
		<ellipse transform="matrix(0.9999 -0.0125 0.0125 0.9999 -6.1674 8.1423)" style="fill:#0075C9;" cx="648.664" cy="497.738" rx="13.193" ry="13.194"/>
	<g>
		<g>
			<path style="fill:#051C2C;" d="M286.024,783.287v-0.258c-0.349,0.398-0.692,0.725-1.031,0.973
				c-0.338,0.252-0.706,0.441-1.102,0.57c-0.395,0.133-0.827,0.195-1.296,0.195c-0.621,0-1.196-0.131-1.725-0.393
				c-0.528-0.264-0.986-0.639-1.372-1.127c-0.387-0.486-0.68-1.058-0.879-1.719c-0.199-0.658-0.299-1.371-0.299-2.137
				c0-1.621,0.396-2.885,1.188-3.791c0.792-0.904,1.833-1.358,3.125-1.358c0.747,0,1.377,0.129,1.89,0.385
				c0.513,0.256,1.013,0.652,1.501,1.182v-3.826c0-0.533,0.105-0.934,0.318-1.207c0.211-0.271,0.514-0.408,0.907-0.408
				c0.393,0,0.694,0.125,0.907,0.375c0.212,0.252,0.318,0.619,0.318,1.108v11.435c0,0.494-0.113,0.863-0.342,1.111
				c-0.228,0.246-0.522,0.369-0.883,0.369c-0.354,0-0.647-0.127-0.879-0.383C286.139,784.127,286.024,783.762,286.024,783.287z
				 M280.923,779.479c0,0.703,0.109,1.301,0.328,1.795c0.219,0.494,0.518,0.865,0.897,1.115c0.38,0.25,0.795,0.377,1.244,0.377
				c0.456,0,0.872-0.119,1.25-0.357c0.376-0.236,0.677-0.602,0.902-1.092c0.225-0.49,0.337-1.106,0.337-1.838
				c0-0.691-0.112-1.285-0.337-1.783c-0.225-0.496-0.528-0.875-0.912-1.139c-0.383-0.262-0.803-0.392-1.258-0.392
				c-0.475,0-0.899,0.135-1.273,0.402c-0.374,0.269-0.663,0.654-0.869,1.158C281.026,778.229,280.923,778.813,280.923,779.479z"/>
			<path style="fill:#051C2C;" d="M297.457,780.135h-5.071c0.006,0.588,0.124,1.107,0.357,1.557c0.23,0.449,0.538,0.789,0.921,1.016
				c0.383,0.229,0.806,0.342,1.268,0.342c0.31,0,0.593-0.035,0.85-0.107c0.257-0.074,0.505-0.188,0.746-0.344
				c0.241-0.154,0.462-0.32,0.665-0.498c0.202-0.178,0.464-0.42,0.788-0.723c0.133-0.113,0.323-0.172,0.571-0.172
				c0.266,0,0.48,0.074,0.645,0.221c0.165,0.147,0.248,0.35,0.248,0.617c0,0.234-0.093,0.506-0.275,0.82
				c-0.185,0.314-0.462,0.615-0.832,0.902c-0.372,0.289-0.835,0.527-1.397,0.717c-0.559,0.191-1.204,0.285-1.933,0.285
				c-1.664,0-2.96-0.475-3.884-1.424c-0.924-0.949-1.386-2.238-1.386-3.865c0-0.768,0.113-1.479,0.341-2.133
				c0.228-0.656,0.561-1.217,0.997-1.685c0.437-0.469,0.975-0.828,1.615-1.078c0.639-0.25,1.349-0.375,2.128-0.375
				c1.013,0,1.882,0.213,2.606,0.641c0.726,0.428,1.27,0.98,1.63,1.656c0.36,0.678,0.542,1.369,0.542,2.07
				c0,0.654-0.187,1.076-0.56,1.27C298.662,780.037,298.136,780.135,297.457,780.135z M292.386,778.662h4.702
				c-0.063-0.887-0.303-1.551-0.717-1.99c-0.415-0.441-0.96-0.66-1.638-0.66c-0.646,0-1.177,0.223-1.591,0.668
				C292.727,777.127,292.476,777.787,292.386,778.662z"/>
			<path style="fill:#051C2C;" d="M309.272,781.377c0,0.715-0.173,1.328-0.522,1.838c-0.348,0.51-0.862,0.897-1.544,1.16
				c-0.68,0.262-1.508,0.393-2.483,0.393c-0.931,0-1.728-0.143-2.393-0.428c-0.665-0.283-1.156-0.641-1.472-1.066
				c-0.317-0.43-0.475-0.857-0.475-1.289c0-0.285,0.101-0.527,0.304-0.73c0.202-0.201,0.459-0.303,0.769-0.303
				c0.272,0,0.48,0.066,0.626,0.199s0.286,0.32,0.418,0.559c0.266,0.465,0.585,0.807,0.956,1.037
				c0.37,0.227,0.874,0.342,1.515,0.342c0.519,0,0.945-0.117,1.277-0.348c0.332-0.232,0.498-0.496,0.498-0.793
				c0-0.457-0.172-0.787-0.518-0.996c-0.345-0.209-0.914-0.41-1.705-0.6c-0.893-0.221-1.619-0.455-2.18-0.699
				c-0.561-0.242-1.008-0.564-1.344-0.963c-0.335-0.398-0.503-0.891-0.503-1.473c0-0.518,0.155-1.01,0.465-1.473
				c0.311-0.461,0.768-0.83,1.374-1.105c0.604-0.275,1.333-0.414,2.188-0.414c0.671,0,1.275,0.07,1.809,0.211
				c0.536,0.137,0.983,0.326,1.34,0.561c0.358,0.232,0.63,0.492,0.816,0.777c0.186,0.285,0.28,0.563,0.28,0.836
				c0,0.297-0.1,0.541-0.298,0.732c-0.199,0.188-0.482,0.285-0.851,0.285c-0.266,0-0.492-0.076-0.679-0.231
				c-0.186-0.15-0.4-0.379-0.641-0.682c-0.196-0.254-0.426-0.457-0.693-0.609c-0.266-0.152-0.627-0.227-1.083-0.227
				c-0.469,0-0.857,0.098-1.168,0.299c-0.31,0.199-0.465,0.447-0.465,0.744c0,0.273,0.114,0.496,0.341,0.67
				c0.229,0.176,0.535,0.32,0.922,0.434c0.386,0.113,0.917,0.252,1.596,0.416c0.803,0.197,1.46,0.432,1.97,0.703
				c0.509,0.272,0.896,0.594,1.16,0.965C309.142,780.481,309.272,780.902,309.272,781.377z"/>
			<path style="fill:#051C2C;" d="M311.921,773.019c-0.361,0-0.669-0.111-0.926-0.332c-0.256-0.221-0.385-0.535-0.385-0.941
				c0-0.367,0.131-0.668,0.394-0.906c0.263-0.238,0.569-0.357,0.917-0.357c0.336,0,0.633,0.107,0.893,0.324
				c0.26,0.215,0.39,0.527,0.39,0.94c0,0.4-0.127,0.711-0.381,0.935C312.57,772.906,312.27,773.019,311.921,773.019z
				 M313.204,775.697v7.494c0,0.519-0.124,0.912-0.371,1.178c-0.248,0.266-0.56,0.398-0.94,0.398c-0.38,0-0.689-0.135-0.926-0.408
				c-0.238-0.271-0.356-0.662-0.356-1.168v-7.418c0-0.512,0.118-0.898,0.356-1.158c0.237-0.26,0.546-0.391,0.926-0.391
				c0.38,0,0.693,0.131,0.94,0.391C313.081,774.875,313.204,775.236,313.204,775.697z"/>
			<path style="fill:#051C2C;" d="M324.563,776.125v7.531c0,0.861-0.093,1.604-0.277,2.225c-0.182,0.619-0.477,1.133-0.883,1.537
				c-0.405,0.404-0.935,0.707-1.59,0.902c-0.655,0.197-1.471,0.295-2.446,0.295c-0.893,0-1.69-0.125-2.394-0.375
				c-0.702-0.252-1.243-0.574-1.624-0.969c-0.379-0.396-0.57-0.803-0.57-1.221c0-0.316,0.108-0.576,0.324-0.773
				c0.215-0.201,0.475-0.301,0.778-0.301c0.38,0,0.712,0.168,0.997,0.504c0.139,0.17,0.283,0.344,0.432,0.517
				c0.149,0.176,0.314,0.324,0.494,0.447c0.181,0.123,0.397,0.215,0.65,0.275c0.253,0.059,0.545,0.09,0.874,0.09
				c0.671,0,1.192-0.094,1.563-0.281c0.371-0.185,0.63-0.447,0.779-0.783c0.149-0.334,0.236-0.693,0.261-1.078
				c0.025-0.383,0.044-0.998,0.057-1.848c-0.399,0.559-0.859,0.982-1.382,1.273c-0.522,0.291-1.145,0.438-1.866,0.438
				c-0.868,0-1.626-0.223-2.275-0.666c-0.648-0.443-1.147-1.063-1.495-1.861c-0.349-0.799-0.522-1.719-0.522-2.764
				c0-0.777,0.105-1.482,0.317-2.107c0.213-0.629,0.515-1.156,0.907-1.588c0.392-0.43,0.845-0.754,1.358-0.973
				c0.513-0.219,1.076-0.328,1.691-0.328c0.734,0,1.371,0.143,1.909,0.422c0.538,0.283,1.038,0.725,1.5,1.326v-0.352
				c0-0.449,0.11-0.797,0.332-1.045c0.222-0.246,0.507-0.371,0.855-0.371c0.5,0,0.832,0.164,0.996,0.49
				C324.48,775.041,324.563,775.512,324.563,776.125z M317.05,779.412c0,1.051,0.229,1.846,0.688,2.383
				c0.459,0.539,1.053,0.809,1.781,0.809c0.43,0,0.837-0.117,1.22-0.348c0.384-0.231,0.695-0.58,0.936-1.045
				c0.24-0.465,0.361-1.029,0.361-1.695c0-1.057-0.232-1.881-0.698-2.469c-0.466-0.588-1.078-0.883-1.838-0.883
				c-0.741,0-1.334,0.281-1.78,0.846C317.272,777.572,317.05,778.373,317.05,779.412z"/>
			<path style="fill:#051C2C;" d="M328.684,775.66v0.313c0.455-0.602,0.954-1.043,1.496-1.324c0.542-0.281,1.163-0.424,1.866-0.424
				c0.684,0,1.295,0.15,1.834,0.447c0.538,0.299,0.941,0.719,1.206,1.262c0.172,0.318,0.282,0.66,0.332,1.027
				c0.051,0.367,0.077,0.836,0.077,1.406v4.824c0,0.519-0.119,0.912-0.357,1.178c-0.237,0.266-0.546,0.398-0.926,0.398
				c-0.387,0-0.7-0.135-0.94-0.408c-0.241-0.271-0.361-0.662-0.361-1.168v-4.322c0-0.853-0.119-1.508-0.357-1.961
				c-0.238-0.451-0.71-0.68-1.42-0.68c-0.461,0-0.883,0.139-1.263,0.414c-0.38,0.275-0.659,0.654-0.836,1.135
				c-0.126,0.387-0.19,1.108-0.19,2.166v3.248c0,0.525-0.122,0.92-0.365,1.184c-0.244,0.262-0.559,0.393-0.945,0.393
				c-0.375,0-0.681-0.135-0.922-0.408c-0.24-0.271-0.361-0.662-0.361-1.168v-7.494c0-0.494,0.107-0.863,0.323-1.108
				c0.215-0.242,0.51-0.365,0.883-0.365c0.229,0,0.435,0.055,0.619,0.162c0.183,0.109,0.33,0.27,0.441,0.484
				C328.628,775.086,328.684,775.35,328.684,775.66z"/>
			<path style="fill:#051C2C;" d="M344.458,780.135h-5.071c0.007,0.588,0.125,1.107,0.357,1.557
				c0.231,0.449,0.538,0.789,0.921,1.016c0.382,0.229,0.805,0.342,1.267,0.342c0.311,0,0.594-0.035,0.851-0.107
				c0.255-0.074,0.504-0.188,0.746-0.344c0.24-0.154,0.461-0.32,0.665-0.498c0.202-0.178,0.464-0.42,0.788-0.723
				c0.133-0.113,0.323-0.172,0.57-0.172c0.266,0,0.481,0.074,0.646,0.221c0.165,0.147,0.247,0.35,0.247,0.617
				c0,0.234-0.091,0.506-0.275,0.82c-0.184,0.314-0.461,0.615-0.832,0.902c-0.371,0.289-0.835,0.527-1.396,0.717
				c-0.56,0.191-1.205,0.285-1.933,0.285c-1.665,0-2.96-0.475-3.885-1.424c-0.923-0.949-1.386-2.238-1.386-3.865
				c0-0.768,0.114-1.479,0.342-2.133c0.228-0.656,0.561-1.217,0.998-1.685c0.436-0.469,0.975-0.828,1.614-1.078
				c0.639-0.25,1.349-0.375,2.128-0.375c1.013,0,1.881,0.213,2.606,0.641c0.726,0.428,1.269,0.98,1.63,1.656
				c0.36,0.678,0.542,1.369,0.542,2.07c0,0.654-0.187,1.076-0.561,1.27C345.662,780.037,345.136,780.135,344.458,780.135z
				 M339.387,778.662h4.701c-0.063-0.887-0.302-1.551-0.717-1.99c-0.415-0.441-0.961-0.66-1.638-0.66
				c-0.646,0-1.177,0.223-1.592,0.668C339.726,777.127,339.476,777.787,339.387,778.662z"/>
			<path style="fill:#051C2C;" d="M355.028,783.287v-0.258c-0.348,0.398-0.691,0.725-1.03,0.973
				c-0.339,0.252-0.706,0.441-1.102,0.57c-0.395,0.133-0.828,0.195-1.296,0.195c-0.622,0-1.196-0.131-1.724-0.393
				c-0.529-0.264-0.986-0.639-1.373-1.127c-0.387-0.486-0.679-1.058-0.878-1.719c-0.2-0.658-0.299-1.371-0.299-2.137
				c0-1.621,0.396-2.885,1.187-3.791c0.792-0.904,1.833-1.358,3.125-1.358c0.747,0,1.377,0.129,1.89,0.385s1.013,0.652,1.5,1.182
				v-3.826c0-0.533,0.106-0.934,0.319-1.207c0.211-0.271,0.515-0.408,0.907-0.408c0.392,0,0.694,0.125,0.907,0.375
				c0.212,0.252,0.318,0.619,0.318,1.108v11.435c0,0.494-0.114,0.863-0.342,1.111c-0.228,0.246-0.522,0.369-0.883,0.369
				c-0.355,0-0.648-0.127-0.879-0.383C355.144,784.127,355.028,783.762,355.028,783.287z M349.928,779.479
				c0,0.703,0.108,1.301,0.327,1.795c0.218,0.494,0.517,0.865,0.898,1.115c0.379,0.25,0.794,0.377,1.243,0.377
				c0.456,0,0.873-0.119,1.249-0.357c0.377-0.236,0.678-0.602,0.902-1.092c0.225-0.49,0.337-1.106,0.337-1.838
				c0-0.691-0.112-1.285-0.337-1.783c-0.224-0.496-0.528-0.875-0.912-1.139c-0.384-0.262-0.803-0.392-1.259-0.392
				c-0.474,0-0.899,0.135-1.272,0.402c-0.373,0.269-0.663,0.654-0.869,1.158C350.03,778.229,349.928,778.813,349.928,779.479z"/>
			<path style="fill:#051C2C;" d="M365.626,771.852v3.959c0.487-0.506,0.984-0.894,1.491-1.162c0.506-0.269,1.134-0.404,1.881-0.404
				c0.861,0,1.616,0.205,2.266,0.611c0.648,0.41,1.151,1.002,1.51,1.777c0.358,0.775,0.537,1.695,0.537,2.76
				c0,0.785-0.1,1.504-0.299,2.16c-0.2,0.656-0.49,1.225-0.869,1.705c-0.38,0.48-0.841,0.854-1.382,1.117
				c-0.542,0.262-1.139,0.393-1.791,0.393c-0.399,0-0.775-0.047-1.126-0.143c-0.352-0.094-0.651-0.219-0.898-0.375
				c-0.246-0.154-0.457-0.315-0.631-0.479c-0.174-0.164-0.404-0.412-0.689-0.742v0.258c0,0.486-0.117,0.855-0.352,1.107
				c-0.233,0.25-0.531,0.373-0.893,0.373c-0.367,0-0.66-0.123-0.878-0.373c-0.219-0.252-0.328-0.621-0.328-1.107v-11.322
				c0-0.525,0.106-0.924,0.317-1.191c0.212-0.269,0.509-0.404,0.889-0.404c0.399,0,0.706,0.129,0.921,0.385
				C365.518,771.012,365.626,771.375,365.626,771.852z M365.749,779.555c0,1.031,0.236,1.824,0.708,2.377
				c0.472,0.555,1.091,0.834,1.857,0.834c0.652,0,1.214-0.283,1.685-0.852c0.472-0.566,0.708-1.379,0.708-2.436
				c0-0.684-0.097-1.273-0.294-1.768c-0.197-0.494-0.475-0.875-0.836-1.144c-0.361-0.268-0.783-0.402-1.264-0.402
				c-0.494,0-0.935,0.135-1.32,0.402c-0.386,0.269-0.69,0.658-0.912,1.168C365.86,778.244,365.749,778.852,365.749,779.555z"/>
			<path style="fill:#051C2C;" d="M376.672,785.092l0.237-0.58l-3.191-8.035c-0.196-0.461-0.295-0.799-0.295-1.008
				c0-0.221,0.058-0.426,0.171-0.615c0.114-0.191,0.271-0.344,0.47-0.457c0.2-0.115,0.407-0.172,0.622-0.172
				c0.373,0,0.655,0.119,0.846,0.357c0.19,0.236,0.357,0.576,0.503,1.02l2.194,6.383l2.08-5.936c0.164-0.48,0.313-0.857,0.446-1.131
				c0.133-0.272,0.273-0.455,0.422-0.549c0.148-0.096,0.359-0.144,0.632-0.144c0.197,0,0.385,0.053,0.565,0.158
				c0.18,0.104,0.319,0.244,0.418,0.422c0.098,0.178,0.148,0.363,0.148,0.56c-0.026,0.119-0.066,0.291-0.124,0.514
				c-0.058,0.221-0.126,0.447-0.208,0.674l-3.381,8.852c-0.292,0.779-0.577,1.389-0.855,1.832c-0.279,0.443-0.647,0.785-1.107,1.021
				c-0.459,0.238-1.078,0.357-1.857,0.357c-0.759,0-1.33-0.082-1.709-0.246c-0.381-0.166-0.57-0.467-0.57-0.904
				c0-0.297,0.089-0.527,0.271-0.688c0.18-0.162,0.448-0.244,0.801-0.244c0.14,0,0.276,0.019,0.409,0.059
				c0.165,0.037,0.307,0.057,0.427,0.057c0.297,0,0.532-0.043,0.704-0.133c0.17-0.088,0.324-0.242,0.461-0.461
				C376.337,785.838,376.495,785.516,376.672,785.092z"/>
		</g>
		<g>
			<path style="fill:#051C2C;" d="M414.234,774.449h0.619v-0.777c0-0.814,0.1-1.457,0.307-1.938
				c0.203-0.478,0.555-0.826,1.047-1.045c0.49-0.217,1.162-0.326,2.016-0.326c1.52,0,2.273,0.367,2.273,1.113
				c0,0.238-0.08,0.445-0.24,0.615c-0.154,0.17-0.344,0.256-0.559,0.256c-0.1,0-0.277-0.018-0.527-0.059
				c-0.236-0.033-0.451-0.057-0.623-0.057c-0.467,0-0.766,0.141-0.904,0.416c-0.127,0.275-0.195,0.668-0.195,1.184v0.617h0.633
				c0.99,0,1.48,0.297,1.48,0.896c0,0.418-0.127,0.69-0.392,0.805c-0.262,0.113-0.623,0.17-1.088,0.17h-0.633v6.871
				c0,0.512-0.121,0.9-0.369,1.168c-0.242,0.273-0.555,0.406-0.943,0.406c-0.367,0-0.67-0.133-0.918-0.406
				c-0.244-0.268-0.363-0.656-0.363-1.168v-6.871h-0.715c-0.389,0-0.682-0.084-0.893-0.262c-0.209-0.17-0.315-0.398-0.315-0.678
				C412.932,774.758,413.365,774.449,414.234,774.449"/>
			<path style="fill:#051C2C;" d="M422.725,781.023v2.168c0,0.523-0.133,0.92-0.375,1.18c-0.246,0.266-0.559,0.395-0.938,0.395
				c-0.381,0-0.688-0.131-0.926-0.4c-0.236-0.264-0.361-0.656-0.361-1.174v-7.223c0-1.166,0.42-1.748,1.262-1.748
				c0.434,0,0.742,0.135,0.934,0.408c0.19,0.273,0.295,0.674,0.316,1.207c0.309-0.533,0.625-0.934,0.949-1.207
				c0.332-0.273,0.762-0.408,1.309-0.408c0.549,0,1.072,0.135,1.586,0.408c0.516,0.273,0.772,0.637,0.772,1.084
				c0,0.314-0.111,0.58-0.326,0.781c-0.221,0.209-0.455,0.313-0.707,0.313c-0.1,0-0.33-0.063-0.691-0.18
				c-0.365-0.113-0.689-0.174-0.963-0.174c-0.381,0-0.693,0.103-0.932,0.299c-0.242,0.205-0.432,0.496-0.564,0.887
				c-0.129,0.395-0.219,0.865-0.273,1.404C422.746,779.584,422.725,780.246,422.725,781.023"/>
			<path style="fill:#051C2C;" d="M434.645,780.131h-5.074c0.01,0.588,0.125,1.111,0.355,1.559c0.234,0.447,0.539,0.787,0.924,1.017
				c0.385,0.227,0.805,0.34,1.27,0.34c0.311,0,0.592-0.033,0.85-0.111c0.254-0.07,0.504-0.185,0.744-0.342
				c0.242-0.152,0.461-0.318,0.664-0.5c0.203-0.174,0.467-0.416,0.791-0.719c0.135-0.113,0.324-0.174,0.568-0.174
				c0.268,0,0.48,0.074,0.648,0.223c0.166,0.146,0.244,0.35,0.244,0.617c0,0.234-0.09,0.508-0.268,0.818
				c-0.188,0.318-0.463,0.617-0.836,0.906c-0.375,0.285-0.84,0.527-1.398,0.715c-0.559,0.189-1.205,0.285-1.932,0.285
				c-1.67,0-2.963-0.473-3.887-1.422c-0.924-0.951-1.391-2.242-1.391-3.867c0-0.768,0.117-1.479,0.348-2.135
				c0.225-0.658,0.557-1.217,0.998-1.688c0.435-0.471,0.971-0.828,1.613-1.078c0.637-0.25,1.346-0.375,2.127-0.375
				c1.012,0,1.881,0.215,2.607,0.647c0.723,0.422,1.273,0.977,1.629,1.654c0.361,0.68,0.541,1.367,0.541,2.074
				c0,0.648-0.188,1.07-0.561,1.266C435.848,780.035,435.322,780.131,434.645,780.131 M429.57,778.656h4.701
				c-0.062-0.885-0.297-1.549-0.713-1.986c-0.418-0.441-0.959-0.66-1.641-0.66c-0.647,0-1.178,0.221-1.592,0.67
				C429.912,777.125,429.658,777.783,429.57,778.656"/>
			<path style="fill:#051C2C;" d="M445.432,780.131h-5.072c0.006,0.588,0.125,1.111,0.354,1.559
				c0.232,0.447,0.539,0.787,0.922,1.017c0.383,0.227,0.805,0.34,1.271,0.34c0.307,0,0.592-0.033,0.844-0.111
				c0.26-0.07,0.506-0.185,0.75-0.342c0.242-0.152,0.461-0.318,0.664-0.5c0.199-0.174,0.465-0.416,0.789-0.719
				c0.135-0.113,0.326-0.174,0.568-0.174c0.268,0,0.482,0.074,0.65,0.223c0.164,0.146,0.24,0.35,0.24,0.617
				c0,0.234-0.088,0.508-0.273,0.818c-0.178,0.318-0.455,0.617-0.83,0.906c-0.371,0.285-0.84,0.527-1.397,0.715
				c-0.557,0.189-1.207,0.285-1.934,0.285c-1.668,0-2.959-0.473-3.887-1.422c-0.924-0.951-1.389-2.242-1.389-3.867
				c0-0.768,0.115-1.479,0.348-2.135c0.227-0.658,0.559-1.217,0.996-1.688c0.436-0.471,0.973-0.828,1.613-1.078
				c0.639-0.25,1.352-0.375,2.129-0.375c1.01,0,1.879,0.215,2.613,0.647c0.721,0.422,1.266,0.977,1.621,1.654
				c0.359,0.68,0.545,1.367,0.545,2.074c0,0.648-0.191,1.07-0.561,1.266C446.633,780.035,446.107,780.131,445.432,780.131
				 M440.359,778.656h4.701c-0.064-0.885-0.305-1.549-0.715-1.986c-0.422-0.441-0.963-0.66-1.643-0.66
				c-0.647,0-1.176,0.221-1.594,0.67C440.697,777.125,440.443,777.783,440.359,778.656"/>
			<path style="fill:#051C2C;" d="M451.111,775.68v0.31c0.486-0.602,0.994-1.043,1.525-1.324c0.518-0.285,1.117-0.428,1.781-0.428
				c0.795,0,1.535,0.209,2.207,0.617c0.672,0.414,1.199,1.016,1.59,1.807c0.389,0.795,0.586,1.73,0.586,2.815
				c0,0.795-0.113,1.531-0.336,2.201c-0.225,0.668-0.537,1.227-0.93,1.68c-0.393,0.449-0.855,0.801-1.389,1.045
				c-0.543,0.242-1.111,0.363-1.728,0.363c-0.738,0-1.363-0.148-1.865-0.447c-0.502-0.291-0.982-0.733-1.441-1.305v3.893
				c0,1.135-0.416,1.709-1.244,1.709c-0.49,0-0.809-0.146-0.971-0.439c-0.152-0.299-0.234-0.723-0.234-1.291v-11.193
				c0-0.494,0.107-0.859,0.32-1.107c0.215-0.238,0.512-0.363,0.885-0.363c0.369,0,0.666,0.125,0.897,0.373
				C450.998,774.848,451.111,775.205,451.111,775.68 M456.195,779.447c0-0.686-0.105-1.273-0.314-1.764
				c-0.209-0.492-0.498-0.867-0.865-1.127c-0.367-0.264-0.783-0.396-1.232-0.396c-0.715,0-1.318,0.283-1.809,0.844
				c-0.492,0.566-0.74,1.394-0.74,2.492c0,1.027,0.244,1.834,0.736,2.406c0.486,0.574,1.086,0.859,1.813,0.859
				c0.428,0,0.83-0.127,1.197-0.373c0.371-0.252,0.664-0.627,0.883-1.127C456.084,780.76,456.195,780.154,456.195,779.447"/>
			<path style="fill:#051C2C;" d="M461.412,773.014c-0.363,0-0.67-0.115-0.924-0.336c-0.26-0.223-0.387-0.531-0.387-0.935
				c0-0.369,0.131-0.67,0.396-0.91c0.262-0.234,0.566-0.355,0.914-0.355c0.34,0,0.635,0.105,0.893,0.318
				c0.26,0.219,0.391,0.535,0.391,0.947c0,0.398-0.127,0.711-0.377,0.935C462.064,772.898,461.764,773.014,461.412,773.014
				 M462.695,775.691v7.502c0,0.516-0.123,0.908-0.369,1.172c-0.25,0.27-0.561,0.4-0.941,0.4c-0.381,0-0.686-0.133-0.928-0.406
				c-0.234-0.275-0.355-0.664-0.355-1.166v-7.428c0-0.51,0.121-0.895,0.355-1.154c0.242-0.264,0.547-0.391,0.928-0.391
				c0.381,0,0.691,0.127,0.941,0.391C462.572,774.871,462.695,775.234,462.695,775.691"/>
			<path style="fill:#051C2C;" d="M471.055,783.582l-2.283-3.766l-1.408,1.328v2.066c0,0.498-0.133,0.881-0.396,1.148
				c-0.258,0.273-0.566,0.406-0.906,0.406c-0.398,0-0.715-0.131-0.941-0.4c-0.227-0.264-0.344-0.656-0.344-1.174v-11.063
				c0-0.574,0.115-1.012,0.332-1.314c0.223-0.305,0.545-0.451,0.953-0.451c0.399,0,0.713,0.137,0.949,0.41
				c0.234,0.272,0.353,0.674,0.353,1.203v6.293l2.916-3.063c0.361-0.377,0.633-0.641,0.826-0.779
				c0.189-0.139,0.42-0.207,0.689-0.207c0.326,0,0.594,0.104,0.816,0.309c0.211,0.205,0.32,0.465,0.32,0.773
				c0,0.379-0.353,0.889-1.055,1.522l-1.377,1.262l2.658,4.184c0.193,0.313,0.34,0.543,0.424,0.705
				c0.084,0.16,0.131,0.32,0.131,0.463c0,0.412-0.115,0.734-0.342,0.975c-0.225,0.236-0.523,0.354-0.885,0.354
				c-0.316,0-0.564-0.08-0.734-0.256C471.582,784.338,471.346,784.027,471.055,783.582"/>
			<path style="fill:#051C2C;" d="M476.691,784.766c-0.393,0-0.728-0.125-1.014-0.381c-0.285-0.248-0.43-0.606-0.43-1.065
				c0-0.385,0.139-0.719,0.41-0.994c0.275-0.279,0.607-0.42,1.008-0.42c0.398,0,0.736,0.141,1.023,0.412
				c0.279,0.275,0.422,0.613,0.422,1.002c0,0.453-0.143,0.809-0.422,1.061C477.402,784.641,477.07,784.766,476.691,784.766"/>
			<path style="fill:#051C2C;" d="M489.59,781.557c0,0.32-0.098,0.668-0.291,1.033c-0.191,0.371-0.488,0.719-0.887,1.051
				c-0.395,0.332-0.891,0.602-1.494,0.803c-0.602,0.203-1.281,0.307-2.031,0.307c-1.605,0-2.857-0.469-3.758-1.4
				c-0.895-0.935-1.346-2.189-1.346-3.76c0-1.068,0.205-2.006,0.619-2.824c0.408-0.814,1.004-1.447,1.781-1.895
				c0.779-0.447,1.717-0.67,2.795-0.67c0.674,0,1.287,0.098,1.852,0.295c0.561,0.195,1.033,0.451,1.426,0.76
				c0.387,0.314,0.685,0.642,0.889,0.992c0.207,0.352,0.309,0.68,0.309,0.986c0,0.309-0.113,0.572-0.344,0.787
				c-0.234,0.215-0.516,0.324-0.838,0.324c-0.219,0-0.398-0.057-0.541-0.166c-0.145-0.111-0.305-0.289-0.478-0.541
				c-0.318-0.478-0.647-0.842-0.996-1.08c-0.344-0.242-0.781-0.361-1.315-0.361c-0.762,0-1.383,0.297-1.853,0.896
				c-0.467,0.596-0.703,1.42-0.703,2.455c0,0.488,0.063,0.939,0.184,1.348c0.117,0.406,0.291,0.756,0.52,1.043
				c0.23,0.287,0.504,0.506,0.826,0.654c0.324,0.154,0.682,0.227,1.064,0.227c0.522,0,0.967-0.121,1.336-0.361
				c0.377-0.24,0.703-0.607,0.986-1.102c0.158-0.291,0.328-0.518,0.51-0.684c0.182-0.164,0.408-0.25,0.676-0.25
				c0.316,0,0.58,0.123,0.785,0.363C489.482,781.027,489.59,781.285,489.59,781.557"/>
			<path style="fill:#051C2C;" d="M500.779,779.496c0,0.77-0.121,1.484-0.355,2.139c-0.246,0.652-0.592,1.213-1.049,1.678
				c-0.455,0.469-1.002,0.828-1.633,1.08c-0.639,0.248-1.35,0.375-2.139,0.375c-0.785,0-1.492-0.127-2.121-0.383
				c-0.623-0.248-1.17-0.613-1.625-1.082c-0.461-0.477-0.809-1.033-1.053-1.676c-0.228-0.645-0.35-1.356-0.35-2.131
				c0-0.787,0.123-1.506,0.357-2.158c0.242-0.654,0.59-1.213,1.039-1.674c0.451-0.461,0.994-0.816,1.631-1.07
				c0.645-0.248,1.35-0.373,2.121-0.373c0.785,0,1.498,0.125,2.139,0.381c0.639,0.252,1.184,0.615,1.645,1.08
				c0.457,0.475,0.803,1.029,1.039,1.672C500.66,778.004,500.779,778.713,500.779,779.496 M498.176,779.496
				c0-1.059-0.234-1.881-0.697-2.469c-0.463-0.596-1.09-0.889-1.875-0.889c-0.508,0-0.955,0.133-1.342,0.395
				s-0.682,0.648-0.891,1.164c-0.209,0.514-0.315,1.113-0.315,1.799c0,0.678,0.102,1.268,0.309,1.773
				c0.209,0.51,0.502,0.897,0.887,1.166c0.385,0.266,0.834,0.404,1.351,0.404c0.785,0,1.412-0.297,1.875-0.892
				C497.941,781.357,498.176,780.537,498.176,779.496"/>
			<path style="fill:#051C2C;" d="M510.672,779.685v3.447c0,0.547-0.121,0.951-0.369,1.227c-0.25,0.273-0.572,0.408-0.978,0.408
				c-0.393,0-0.713-0.135-0.951-0.408c-0.246-0.275-0.371-0.68-0.371-1.227v-4.131c0-0.654-0.022-1.162-0.065-1.525
				c-0.045-0.354-0.168-0.654-0.361-0.883c-0.197-0.234-0.51-0.352-0.932-0.352c-0.85,0-1.406,0.291-1.676,0.881
				c-0.268,0.576-0.406,1.414-0.406,2.508v3.502c0,0.537-0.123,0.945-0.361,1.223c-0.25,0.273-0.568,0.412-0.965,0.412
				c-0.397,0-0.717-0.139-0.967-0.412c-0.252-0.277-0.377-0.686-0.377-1.223v-7.42c0-0.488,0.111-0.859,0.336-1.111
				c0.229-0.256,0.525-0.381,0.889-0.381c0.357,0,0.652,0.123,0.893,0.355c0.236,0.238,0.353,0.566,0.353,0.984v0.244
				c0.453-0.535,0.936-0.932,1.445-1.18c0.516-0.26,1.082-0.387,1.713-0.387c0.65,0,1.211,0.131,1.678,0.391
				c0.469,0.26,0.853,0.654,1.16,1.176c0.439-0.527,0.908-0.922,1.41-1.18c0.5-0.258,1.053-0.387,1.662-0.387
				c0.705,0,1.32,0.143,1.834,0.42c0.51,0.277,0.893,0.68,1.147,1.195c0.221,0.473,0.33,1.209,0.33,2.217v5.063
				c0,0.547-0.121,0.951-0.367,1.227c-0.246,0.273-0.574,0.408-0.979,0.408c-0.394,0-0.715-0.139-0.965-0.412
				c-0.25-0.277-0.377-0.686-0.377-1.223v-4.361c0-0.559-0.023-1.004-0.068-1.338c-0.047-0.338-0.178-0.621-0.383-0.848
				c-0.213-0.227-0.531-0.344-0.953-0.344c-0.342,0-0.666,0.107-0.975,0.309c-0.307,0.197-0.547,0.477-0.721,0.813
				C510.77,777.801,510.672,778.576,510.672,779.685"/>
		</g>
		<g>
			<path style="fill:#051C2C;" d="M389.967,778.867c-0.002-0.004-0.002-0.01-0.002-0.018
				C389.965,778.857,389.965,778.863,389.967,778.867z"/>
			<path style="fill:#051C2C;" d="M390.098,779.697c0.002,0,0.002,0,0.003,0c-0.05-0.236-0.088-0.471-0.119-0.703
				C390.012,779.229,390.051,779.463,390.098,779.697z"/>
			<path style="fill:#051C2C;" d="M390.956,782.104c-0.006-0.01-0.011-0.022-0.017-0.033
				C390.945,782.082,390.95,782.094,390.956,782.104z"/>
			<path style="fill:#051C2C;" d="M390.874,781.943c-0.022-0.045-0.044-0.09-0.065-0.135
				C390.83,781.856,390.852,781.898,390.874,781.943z"/>
			<path style="fill:#051C2C;" d="M390.339,780.623c0.127,0.4,0.28,0.789,0.457,1.158c-0.18-0.377-0.33-0.766-0.454-1.158
				C390.341,780.623,390.34,780.623,390.339,780.623z"/>
			<path style="fill:#051C2C;" d="M400.004,768.932c0.501,0,0.871,0.039,1.294,0.111l0.121-0.764c0,0-1.171-0.359-2.711-0.234
				l-0.121-0.414c0.478-0.102,0.838-0.527,0.838-1.035c0-0.582-0.474-1.053-1.057-1.053c-0.583,0-1.056,0.471-1.056,1.053
				c0,0.508,0.358,0.934,0.836,1.035l0.134,0.463c-1.634,0.225-2.935,0.861-2.935,0.861l0.23,0.705
				c0.989-0.328,1.846-0.529,2.624-0.613C398.964,768.967,399.537,768.932,400.004,768.932z"/>
			<path style="fill:#051C2C;" d="M390.936,772.789l0.006-0.008c0.039-0.049,0.076-0.096,0.113-0.143l-0.313-0.225l-0.488-0.358
				c-0.027,0.039-0.795,0.744-1.401,2.049c-0.025-0.041-0.056-0.082-0.09-0.119c-0.182-0.199-0.436-0.301-0.758-0.295
				c-0.004,0-0.009,0-0.015,0c-0.2,0-0.337-0.066-0.427-0.146c0.089-0.113,0.143-0.256,0.143-0.414c0-0.367-0.3-0.668-0.669-0.668
				c-0.369,0-0.669,0.301-0.669,0.668c0,0.371,0.3,0.67,0.669,0.67c0.058,0,0.113-0.01,0.167-0.021
				c0.164,0.184,0.425,0.342,0.808,0.334c0.197-0.002,0.341,0.049,0.438,0.156c0.111,0.121,0.148,0.295,0.16,0.428
				c-0.001,0.002-0.001,0.004-0.003,0.004c-0.435,1.189-0.311,2.67-0.311,2.67l1.057,0.043c0.022-0.539,0.099-1.483,0.372-2.231
				C390.25,773.734,390.91,772.828,390.936,772.789z"/>
			<path style="fill:#051C2C;" d="M409.203,769.815c-0.367,0-0.668,0.299-0.668,0.67c0,0.057,0.008,0.111,0.023,0.164
				c-0.184,0.166-0.344,0.428-0.338,0.811c0.004,0.197-0.047,0.34-0.154,0.438c-0.084,0.074-0.191,0.115-0.295,0.141
				c-0.787-1.104-1.756-1.775-1.756-1.775l-0.76,0.813c0.574,0.521,1.16,1.176,1.728,1.99c0.395,0.564,0.799,1.291,1.137,2.016
				l1.023-0.486c0,0-0.467-1.156-1.125-2.192c0.113-0.041,0.228-0.103,0.33-0.193c0.201-0.18,0.299-0.436,0.293-0.758
				c-0.002-0.207,0.066-0.348,0.148-0.441c0.115,0.088,0.258,0.142,0.412,0.142c0.371,0,0.67-0.299,0.67-0.668
				C409.873,770.113,409.574,769.815,409.203,769.815z"/>
			<path style="fill:#051C2C;" d="M406.547,779.018c-1.41,0.686-3.728,1.594-6.782,2.02c-1.198,0.166-2.359,0.227-3.428,0.227
				c-1.391,0-2.62-0.103-3.563-0.223c-1.076-0.135-1.917-0.301-2.432-0.418c0.124,0.393,0.273,0.781,0.454,1.158
				c0.003,0.01,0.008,0.021,0.013,0.027c0.021,0.045,0.043,0.09,0.065,0.135c0.021,0.043,0.043,0.086,0.065,0.127
				c0.006,0.012,0.011,0.023,0.017,0.033c0.303,0.57,0.667,1.094,1.081,1.549c1.44,1.574,2.907,1.824,2.921,1.826l0.023,0.002
				l0.022,0.008c0.013,0.006,1.314,0.426,3.291,0.426c1.945,0,3.855-0.393,5.673-1.168c1.348-0.69,2.623-1.736,3.254-2.67
				c0.488-0.723,0.842-1.492,1.051-2.293c0.111-0.426,0.199-1.107,0.147-1.826C408.021,778.225,407.395,778.604,406.547,779.018z"/>
			<path style="fill:#051C2C;" d="M391.389,773.123c-0.041,0.061-0.652,0.926-1.135,2.254c-0.362,0.994-0.346,2.443-0.346,2.459
				v0.004c0,0.34,0.019,0.676,0.057,1.01c0,0.008,0,0.014,0.002,0.018c0.004,0.043,0.011,0.084,0.015,0.127
				c0.03,0.233,0.069,0.467,0.119,0.703c0.7,0.178,4.878,1.152,9.548,0.502c2.927-0.408,5.15-1.273,6.499-1.928
				c1.121-0.543,1.842-1.035,2.119-1.238c-0.277-1.027-1.041-2.641-1.742-3.646c-2.006-2.865-4.168-3.6-5.277-3.783
				c-0.424-0.068-0.763-0.109-1.244-0.109c-0.447,0-1.002,0.037-1.743,0.115c-0.743,0.076-1.572,0.272-2.532,0.596
				c-1.348,0.451-2.567,1.158-3.527,2.047l-0.033,0.031C392.027,772.414,391.73,772.69,391.389,773.123z M403.658,772.457
				c0.961,0,1.744,0.781,1.744,1.742c0,0.963-0.783,1.744-1.744,1.744c-0.961,0-1.742-0.781-1.742-1.744
				C401.916,773.238,402.697,772.457,403.658,772.457z M395.417,772.387c1.557,0,2.817,1.262,2.817,2.818
				c0,1.555-1.26,2.814-2.817,2.814c-1.555,0-2.816-1.26-2.816-2.814C392.601,773.648,393.862,772.387,395.417,772.387z"/>
		</g>
	</g>
</g>
</svg>
